# xmcd CD database file
#
# Track frame offsets:
#	150
#	17125
#	26437
#	36675
#	45600
#
# Disc length: 976 seconds
#
# Revision: 0
# Processed by: cddbd v1.5PL3 Copyright (c) Steve Scherf et al.
# Submitted via: CDex 1.50
#
DISCID=3b03ce05
DTITLE=セニョール植松とマンボ・パンチョス - ファイナルファンタジー?　マンボdeチョコボ
DYEAR=1993
DGENRE=Game
TTITLE0=マンボdeチョコボ
TTITLE1=飛竜の山（ゲーム未収録曲）
TTITLE2=オープニング・アイデアVersion2（ゲーム未収録曲）
TTITLE3=飛空艇Version2（ゲーム未収録曲）
TTITLE4=FINAL FANTASY MEGAMIX
EXTD=YEAR: 1993
EXTT0=
EXTT1=
EXTT2=
EXTT3=
EXTT4=
PLAYORDER=
